HIERARCHY
ROOT Hips
{
	OFFSET 0.000000 0.000000 0.000000
	CHANNELS 6 Xposition Yposition Zposition Zrotation Yrotation Xrotation 
	JOINT LHipJoint
	{
		OFFSET 0.000000 0.000000 0.000000
		CHANNELS 3 Zrotation Yrotation Xrotation
		JOINT LeftUpLeg
		{
			OFFSET 1.363060 -1.794630 0.839290
			CHANNELS 3 Zrotation Yrotation Xrotation
			JOINT LeftLeg
			{
				OFFSET 2.448110 -6.726130 0.000000
				CHANNELS 3 Zrotation Yrotation Xrotation
				JOINT LeftFoot
				{
					OFFSET 2.562200 -7.039590 0.000000
					CHANNELS 3 Zrotation Yrotation Xrotation
					JOINT LeftToeBase
					{
						OFFSET 0.157640 -0.433110 2.322550
						CHANNELS 3 Zrotation Yrotation Xrotation
						End Site
						{
							OFFSET 0.000000 0.000000 0.000000
						}
					}
				}
			}
		}
	}
	JOINT RHipJoint
	{
		OFFSET 0.000000 0.000000 0.000000
		CHANNELS 3 Zrotation Yrotation Xrotation
		JOINT RightUpLeg
		{
			OFFSET -1.305520 -1.794630 0.839290
			CHANNELS 3 Zrotation Yrotation Xrotation
			JOINT RightLeg
			{
				OFFSET -2.542530 -6.985550 0.000000
				CHANNELS 3 Zrotation Yrotation Xrotation
				JOINT RightFoot
				{
					OFFSET -2.568260 -7.056230 0.000000
					CHANNELS 3 Zrotation Yrotation Xrotation
					JOINT RightToeBase
					{
						OFFSET -0.164730 -0.452590 2.363150
						CHANNELS 3 Zrotation Yrotation Xrotation
						End Site
						{
							OFFSET 0.000000 0.000000 0.000000
						}
					}
				}
			}
		}
	}
}
MOTION
Frames: 28
Frame Time: 0.008333
-2.712790 17.720077 -0.679482 26.478481 79.904505 44.717293 -9.393667 0.091261 3.342997 -8.035058 -5.836603 -32.665346 -2.889978 -0.901710 4.135000 -0.184452 -0.864296 4.754452 0.228100 0.000000 -30.586099 9.767030 -2.697374 -0.613243 10.126026 -0.346035 -8.123508 0.257262 -2.160247 29.459133 -0.952421 -4.802594 11.581190 -1.769400 -0.000000 -60.368700
-2.502645 17.690871 -0.659049 25.890385 79.569191 43.963427 -9.377929 0.112894 3.434992 -7.756212 -6.366743 -32.378896 -2.832098 -0.883271 4.350041 -0.146949 -0.637533 4.516576 0.269900 -0.000000 -30.434200 9.866368 -2.581894 -0.807483 9.912301 -0.804132 -8.801091 -0.001675 -2.286788 32.357696 -1.384357 -7.468931 10.743476 -2.555000 0.000000 -59.754300
-2.294801 17.649220 -0.640140 25.209914 79.228226 43.114915 -9.362098 0.137562 3.525997 -7.402174 -7.008732 -32.124690 -2.740328 -0.835937 4.920210 -0.070994 -0.166796 4.120752 0.354600 -0.000000 -30.170000 9.964863 -2.441037 -1.002476 9.715176 -1.183601 -9.530697 -0.247530 -2.410017 35.419009 -1.858613 -10.308131 9.573956 -3.297100 0.000000 -58.128800
-2.089139 17.595169 -0.622230 24.533680 78.874305 42.272821 -9.340337 0.165005 3.613803 -7.016977 -7.756079 -31.909438 -2.623034 -0.763715 5.819539 0.039362 0.515650 3.594267 0.469700 0.000000 -29.926200 10.071314 -2.283897 -1.190374 9.502887 -1.479902 -10.315220 -0.473314 -2.536140 38.606115 -2.344753 -13.121800 8.123203 -3.891900 0.000000 -55.508901
-1.885561 17.528813 -0.604910 23.909788 78.501442 41.491299 -9.313385 0.194897 3.684489 -6.671607 -8.518621 -31.793884 -2.496201 -0.664456 7.103800 0.169920 1.284899 2.916909 0.582500 0.000001 -29.784700 10.188183 -2.123098 -1.357452 9.260534 -1.684292 -11.168872 -0.676836 -2.669962 41.887593 -2.809149 -15.730941 6.464033 -4.263600 0.000001 -52.144700
-1.684020 17.450497 -0.587511 23.411522 78.104074 40.851516 -9.279473 0.225956 3.730409 -6.425218 -9.238149 -31.821701 -2.372804 -0.539316 8.796709 0.310309 2.056378 2.070227 0.669499 0.000000 -29.824900 10.319710 -1.968990 -1.492979 8.966834 -1.795097 -12.111067 -0.859845 -2.815400 45.238138 -3.219280 -17.980591 4.671343 -4.370500 0.000000 -48.371400
-1.484475 17.360628 -0.569444 23.070761 77.679621 40.392855 -9.240288 0.256813 3.741969 -6.328572 -9.837059 -32.044436 -2.265073 -0.387196 10.937473 0.448384 2.734964 1.019088 0.706900 -0.000000 -30.073700 10.466416 -1.829646 -1.586519 8.614948 -1.809160 -13.159462 -1.027123 -2.973277 48.633819 -3.550600 -19.764740 2.819601 -4.214400 0.000000 -44.571200
-1.286943 17.259899 -0.550272 22.878022 77.228532 40.112467 -9.199786 0.286363 3.712550 -6.407746 -10.251394 -32.502013 -2.180407 -0.206275 13.550598 0.574824 3.252862 -0.270960 0.679600 -0.000001 -30.508701 10.625931 -1.709468 -1.630921 8.211060 -1.725130 -14.326899 -1.184511 -3.141719 52.050719 -3.788763 -21.025803 0.970855 -3.833000 -0.000000 -41.064800
-1.091462 17.149289 -0.529718 22.801449 76.754008 39.984486 -9.161599 0.313893 3.642677 -6.657343 -10.461598 -33.204880 -2.119068 0.003699 16.616865 0.687131 3.598569 -1.814816 0.588000 0.000001 -31.083400 10.795033 -1.609058 -1.624601 7.767166 -1.547495 -15.618561 -1.336977 -3.317595 55.462852 -3.928914 -21.746322 -0.835504 -3.283400 0.000000 -38.047000
-0.898087 17.030220 -0.507665 22.789855 76.260047 39.960715 -9.129222 0.339055 3.537375 -7.048431 -10.481454 -34.132623 -2.076041 0.241011 20.074501 0.788290 3.801951 -3.605662 0.442400 0.000000 -31.732200 10.969506 -1.525982 -1.571089 7.299940 -1.284839 -17.028689 -1.487866 -3.497169 58.838489 -3.974457 -21.945346 -2.580350 -2.630200 -0.000000 -35.586600
-0.706926 16.904681 -0.484074 22.797506 75.750570 39.993168 -9.104553 0.361733 3.404296 -7.541520 -10.351468 -35.230964 -2.043631 0.500601 23.817582 0.885191 3.921315 -5.611288 0.257501 0.000000 -32.398000 11.145790 -1.455326 -1.478738 6.823059 -0.951551 -18.540345 -1.638651 -3.677060 62.138680 -3.935131 -21.673297 -4.254462 -1.937001 0.000000 -33.681700
-0.517811 16.775141 -0.459374 22.798152 75.234138 40.050478 -9.088666 0.382309 3.254651 -8.095547 -10.130586 -36.425864 -2.013852 0.774248 27.712687 0.986385 4.023746 -7.783354 0.044700 -0.000000 -33.041100 11.319824 -1.390851 -1.359739 6.345086 -0.575530 -20.130470 -1.788853 -3.853855 65.317327 -3.825175 -21.005748 -5.850911 -1.259900 -0.000000 -32.294700
-0.331026 16.644500 -0.432899 22.704399 74.706229 40.041713 -9.083613 0.401110 3.090076 -8.670827 -9.822645 -37.645314 -1.983087 1.052585 31.622438 1.094796 4.138416 -10.062249 -0.190600 -0.000000 -33.659700 11.487504 -1.327340 -1.217511 5.892551 -0.147317 -21.777989 -1.938094 -4.024045 68.334911 -3.666231 -20.060830 -7.362278 -0.643700 -0.000000 -31.354100
-0.146839 16.516317 -0.404511 22.581934 74.170472 40.005647 -9.082921 0.420083 2.912188 -9.264225 -9.476121 -38.770795 -1.950864 1.322928 35.388124 1.215945 4.313004 -12.378790 -0.447300 0.000001 -34.247701 11.651726 -1.257274 -1.071671 5.443492 0.287010 -23.435557 -2.083565 -4.188126 71.140741 -3.477753 -18.947029 -8.779098 -0.114200 -0.000000 -30.787400
0.034722 16.394247 -0.373447 22.460563 73.613742 39.942437 -9.078992 0.443160 2.714370 -9.888136 -9.092788 -39.688373 -1.921627 1.572926 38.865921 1.350951 4.563513 -14.671460 -0.728200 0.000000 -34.805700 11.817170 -1.175696 -0.933616 4.976030 0.707204 -25.054245 -2.222912 -4.347195 73.690965 -3.280950 -17.784095 -10.093487 0.319500 0.000000 -30.507800
0.213558 16.281357 -0.340275 22.324198 73.061212 39.837320 -9.074486 0.471081 2.506368 -10.505056 -8.696424 -40.365855 -1.895434 1.795329 41.970598 1.497485 4.883656 -16.882427 -1.033900 0.000000 -35.346600 11.974495 -1.079413 -0.811942 4.524578 1.084185 -26.629525 -2.353649 -4.497276 75.960188 -3.098182 -16.696744 -11.300880 0.663200 -0.000000 -30.410600
0.390295 16.180527 -0.305162 22.130102 72.514130 39.642092 -9.071276 0.506099 2.290730 -11.092034 -8.275559 -40.765218 -1.876095 1.983870 44.628792 1.650797 5.255168 -18.964457 -1.361000 0.000000 -35.871400 12.116915 -0.967795 -0.707881 4.114523 1.414991 -28.145968 -2.473066 -4.634701 77.926671 -2.947842 -15.787975 -12.404186 0.935600 -0.000000 -30.374900
0.565751 16.094137 -0.268210 21.849334 71.973389 39.326528 -9.070795 0.549964 2.071388 -11.629080 -7.822845 -40.864908 -1.867232 2.134143 46.790659 1.805259 5.657337 -20.875644 -1.701700 0.000001 -36.370600 12.238431 -0.841927 -0.620940 3.768267 1.698761 -29.593597 -2.577713 -4.756323 79.577940 -2.842349 -15.126530 -13.416650 1.162200 0.000000 -30.269300
0.740798 16.023947 -0.229430 21.471665 71.438028 38.879844 -9.073244 0.603836 1.852697 -12.102361 -7.337390 -40.654026 -1.871781 2.243352 48.426854 1.955179 6.070568 -22.581129 -2.045000 0.000000 -36.823500 12.335028 -0.703999 -0.550255 3.499885 1.934695 -30.965022 -2.663473 -4.860162 80.908541 -2.787210 -14.740555 -14.359627 1.368800 0.000000 -29.968399
0.916282 15.971165 -0.188829 20.989406 70.905505 38.294779 -9.079529 0.668433 1.638860 -12.499849 -6.819383 -40.131800 -1.891296 2.310621 49.527517 2.094677 6.475862 -24.051431 -2.377000 0.000000 -37.207800 12.403077 -0.557552 -0.494159 3.321129 2.126056 -32.251472 -2.725888 -4.944485 81.916494 -2.781866 -14.621640 -15.255531 1.576400 -0.000000 -29.371800
1.092992 15.936396 -0.146179 20.416595 70.371685 37.586338 -9.088504 0.744019 1.434104 -12.819815 -6.277658 -39.305372 -1.925873 2.336330 50.099443 2.219096 6.859817 -25.264934 -2.684200 0.000000 -37.501100 12.442079 -0.406320 -0.451507 3.231078 2.272793 -33.446773 -2.760629 -5.009098 82.604088 -2.819725 -14.725284 -16.125982 1.798901 0.000000 -28.420100
1.271540 15.919649 -0.101218 19.771539 69.834763 36.777152 -9.099465 0.830129 1.243512 -13.061779 -5.725897 -38.195193 -1.973510 2.322573 50.167539 2.324555 7.212574 -26.205113 -2.954000 0.000001 -37.694900 12.452142 -0.254244 -0.420748 3.227482 2.374620 -34.549171 -2.764124 -5.054068 82.977102 -2.890382 -14.984809 -16.984836 2.041800 0.000000 -27.108500
1.452982 15.920165 -0.053964 19.033065 69.297679 35.867850 -9.116854 0.924550 1.077550 -13.208612 -5.175682 -36.860862 -2.029654 2.274138 49.786053 2.407438 7.521435 -26.867756 -3.174000 0.000000 -37.802500 12.428871 -0.106077 -0.393776 3.327300 2.441709 -35.579573 -2.734063 -5.077190 83.047348 -2.982591 -15.328038 -17.833491 2.302500 0.000000 -25.491300
1.638391 15.937063 -0.003594 18.201852 68.742165 34.867778 -9.140296 1.027258 0.937186 -13.269998 -4.615053 -35.338035 -2.091305 2.194748 49.002370 2.465646 7.778554 -27.253903 -3.335799 -0.000000 -37.851001 12.374989 0.032520 -0.359952 3.520695 2.495837 -36.543123 -2.669895 -5.078849 82.822877 -3.083310 -15.677419 -18.661213 2.569901 0.000000 -23.681799
1.827337 15.969111 0.049756 17.320804 68.198197 33.838115 -9.172339 1.134781 0.835112 -13.238496 -4.098517 -33.690932 -2.150382 2.090979 47.889059 2.499085 7.991959 -27.357636 -3.434700 0.000000 -37.895001 12.288452 0.161125 -0.324648 3.814065 2.507241 -37.459787 -2.571712 -5.058742 82.314020 -3.180650 -15.964854 -19.441278 2.825600 0.000000 -21.844601
2.019884 16.015124 0.106932 16.416258 67.660964 32.810576 -9.211646 1.246982 0.770894 -13.131003 -3.627564 -31.957533 -2.202667 1.967848 46.503951 2.508029 8.165083 -27.181628 -3.468500 0.000000 -37.995100 12.173688 0.276929 -0.284053 4.191717 2.478359 -38.333244 -2.441670 -5.018185 81.525892 -3.264054 -16.136091 -20.137561 3.046800 0.000000 -20.174100
2.216013 16.073889 0.168757 15.513115 67.126653 31.815043 -9.257211 1.364252 0.742565 -12.964988 -3.198493 -30.174875 -2.244299 1.830519 44.903820 2.492932 8.301523 -26.726477 -3.436300 0.000000 -38.224400 12.035157 0.377419 -0.234688 4.638814 2.411512 -39.165899 -2.283145 -4.958389 80.461798 -3.325725 -16.156800 -20.706474 3.209401 0.000000 -18.875100
2.415323 16.144278 0.235916 14.632788 66.589812 30.870237 -9.307902 1.487323 0.743516 -12.758104 -2.796982 -28.367233 -2.272711 1.684110 43.135881 2.454105 8.403850 -25.989953 -3.337000 0.000000 -38.662700 11.877752 0.460510 -0.176038 5.139926 2.308201 -39.948449 -2.099943 -4.880750 79.120376 -3.360481 -16.011367 -21.104377 3.293100 -0.000000 -18.134400
